<?xml version="1.0" encoding="UTF-8" standalone="no"?>
<svg
   xmlns:dc="http://purl.org/dc/elements/1.1/"
   xmlns:cc="http://creativecommons.org/ns#"
   xmlns:rdf="http://www.w3.org/1999/02/22-rdf-syntax-ns#"
   xmlns:svg="http://www.w3.org/2000/svg"
   xmlns="http://www.w3.org/2000/svg"
   xmlns:sodipodi="http://sodipodi.sourceforge.net/DTD/sodipodi-0.dtd"
   xmlns:inkscape="http://www.inkscape.org/namespaces/inkscape"
   version="1.0"
   width="512.000000pt"
   height="512.000000pt"
   viewBox="0 0 512.000000 512.000000"
   preserveAspectRatio="xMidYMid meet"
   id="svg10"
   sodipodi:docname="logo.svg"
   inkscape:version="0.92.3 (2405546, 2018-03-11)">
  <defs
     id="defs14" />
  <sodipodi:namedview
     pagecolor="#ffffff"
     bordercolor="#666666"
     borderopacity="1"
     objecttolerance="10"
     gridtolerance="10"
     guidetolerance="10"
     inkscape:pageopacity="0"
     inkscape:pageshadow="2"
     inkscape:window-width="2560"
     inkscape:window-height="1361"
     id="namedview12"
     showgrid="false"
     inkscape:zoom="0.48889805"
     inkscape:cx="17.906382"
     inkscape:cy="68.908836"
     inkscape:window-x="-9"
     inkscape:window-y="-9"
     inkscape:window-maximized="1"
     inkscape:current-layer="layer5"
     inkscape:pagecheckerboard="true"
     scale-x="0.65"
     showguides="false"
     inkscape:snap-grids="true"
     inkscape:snap-to-guides="true"
     inkscape:measure-start="0,0"
     inkscape:measure-end="0,0">
    <inkscape:grid
       type="xygrid"
       id="grid860" />
  </sodipodi:namedview>
  <metadata
     id="metadata2">
Created by potrace 1.11, written by Peter Selinger 2001-2013
<rdf:RDF>
  <cc:Work
     rdf:about="">
    <dc:format>image/svg+xml</dc:format>
    <dc:type
       rdf:resource="http://purl.org/dc/dcmitype/StillImage" />
    <dc:title></dc:title>
  </cc:Work>
</rdf:RDF>
</metadata>
  <g
     transform="translate(0.000000,512.000000) scale(0.100000,-0.100000)"
     id="g8"
     stroke="none"
     fill="#000000" />
  <g
     inkscape:groupmode="layer"
     id="layer5"
     inkscape:label="Layer 2"
     style="display:inline">
    <circle
       style="opacity:1;fill:#ffffff;fill-opacity:1;stroke:#ffffff;stroke-width:9.32600212;stroke-miterlimit:4;stroke-dasharray:none;stroke-opacity:1"
       id="path4627"
       cx="256"
       cy="256"
       r="245.33699" />
  </g>
  <g
     inkscape:groupmode="layer"
     id="layer4"
     inkscape:label="Layer 1"
     style="display:inline"
     sodipodi:insensitive="true">
    <path
       transform="matrix(0.1,0,0,-0.1,0,512)"
       d="M 2320,5110 C 1818,5058 1338,4862 955,4553 667,4321 438,4035 271,3699 180,3518 122,3359 75,3170 19,2938 6,2824 5,2555 c 0,-132 4,-253 8,-269 8,-27 13,-19 76,115 38,79 138,279 224,444 86,165 186,362 222,437 l 66,136 -21,99 c -19,88 -73,312 -86,355 -6,20 115,97 282,181 191,95 345,139 540,152 172,11 334,-24 400,-86 l 22,-21 98,37 c 142,54 271,78 365,71 196,-16 280,-85 328,-270 44,-167 46,-254 28,-844 -10,-301 -17,-608 -17,-682 1,-317 45,-675 111,-885 51,-165 147,-313 255,-393 l 55,-41 -43,-25 c -143,-84 -312,-140 -471,-156 -204,-21 -347,22 -471,139 -111,105 -193,259 -250,471 -20,75 -56,246 -56,266 0,2 -202,4 -449,4 H 772 l -21,-78 c -60,-225 -75,-384 -47,-521 9,-46 16,-84 14,-86 -2,-1 -45,-26 -96,-54 l -92,-52 61,-74 C 740,745 959,549 1160,417 1296,328 1544,205 1696,151 1841,99 2045,49 2205,24 c 169,-26 541,-26 710,0 522,80 995,303 1368,644 86,79 247,249 247,261 0,3 -80,21 -178,40 l -177,34 -40,-20 c -212,-108 -515,-103 -682,11 -138,93 -215,337 -200,630 13,243 105,857 251,1665 l 24,134 -114,229 c -63,126 -114,232 -114,237 0,11 194,120 311,176 110,51 271,106 374,126 39,8 126,14 195,14 110,0 131,-3 178,-24 126,-57 195,-221 178,-425 -8,-99 -68,-457 -151,-906 -106,-569 -165,-948 -181,-1142 l -7,-88 h 259 c 233,1 271,3 378,25 65,13 122,27 126,32 26,29 109,351 137,533 25,164 24,539 -1,705 -71,465 -260,899 -543,1250 -232,288 -518,517 -854,684 -246,123 -506,205 -779,246 -124,19 -478,28 -600,15 z"
       id="path4"
       inkscape:connector-curvature="0" />
    <path
       transform="matrix(0.1,0,0,-0.1,0,512)"
       d="m 1293,2953 c -220,-445 -333,-681 -333,-698 0,-3 153,-5 340,-5 h 340 v 128 c 0,202 31,906 45,1035 l 6,47 h -74 -73 z"
       id="path6"
       inkscape:connector-curvature="0" />
    <ellipse
       style="opacity:1;fill:none;fill-opacity:1;stroke:none;stroke-width:97.31337738;stroke-miterlimit:4;stroke-dasharray:none;stroke-opacity:1"
       id="path4565"
       cx="712.5"
       cy="-3375"
       transform="matrix(0.1,0,0,0.1,0,512)"
       rx="562.5"
       ry="825" />
    <ellipse
       style="opacity:1;fill:none;fill-opacity:1;stroke:none;stroke-width:97.31337738;stroke-miterlimit:4;stroke-dasharray:none;stroke-opacity:1"
       id="path4567"
       cx="2550"
       cy="-2587.5"
       transform="matrix(0.1,0,0,0.1,0,512)"
       rx="2550"
       ry="2512.5" />
    <circle
       style="opacity:1;fill:none;fill-opacity:1;stroke:none;stroke-width:97.31337738;stroke-miterlimit:4;stroke-dasharray:none;stroke-opacity:1"
       id="path4572"
       cx="2550"
       cy="-2550"
       r="2550"
       transform="matrix(0.1,0,0,0.1,0,512)" />
    <rect
       style="opacity:1;fill:none;fill-opacity:1;stroke:none;stroke-width:97.31337738;stroke-miterlimit:4;stroke-dasharray:none;stroke-opacity:1"
       id="rect4574"
       width="5120"
       height="5120"
       x="0"
       y="-5100"
       transform="matrix(0.1,0,0,0.1,0,512)" />
    <circle
       style="opacity:1;fill:#ffd5d5;fill-opacity:1;stroke:none;stroke-width:97.31337738;stroke-miterlimit:4;stroke-dasharray:none;stroke-opacity:1"
       id="path4576"
       cx="2550"
       cy="-2587.5"
       transform="matrix(0.1,0,0,0.1,0,512)"
       r="0" />
  </g>
</svg>
