<?xml version="1.0" standalone="no"?>
<!DOCTYPE svg PUBLIC "-//W3C//DTD SVG 20010904//EN"
 "http://www.w3.org/TR/2001/REC-SVG-20010904/DTD/svg10.dtd">
<svg version="1.0" xmlns="http://www.w3.org/2000/svg"
 width="512.000000pt" height="512.000000pt" viewBox="0 0 512.000000 512.000000"
 preserveAspectRatio="xMidYMid meet">
<metadata>
Created by potrace 1.11, written by Peter Selinger 2001-2013
</metadata>
<g transform="translate(0.000000,512.000000) scale(0.100000,-0.100000)"
fill="#000000" stroke="none">
<path d="M2320 5110 c-502 -52 -982 -248 -1365 -557 -288 -232 -517 -518 -684
-854 -91 -181 -149 -340 -196 -529 -56 -232 -69 -346 -70 -615 0 -132 4 -253
8 -269 8 -27 13 -19 76 115 38 79 138 279 224 444 86 165 186 362 222 437 l66
136 -21 99 c-19 88 -73 312 -86 355 -6 20 115 97 282 181 191 95 345 139 540
152 172 11 334 -24 400 -86 l22 -21 98 37 c142 54 271 78 365 71 196 -16 280
-85 328 -270 44 -167 46 -254 28 -844 -10 -301 -17 -608 -17 -682 1 -317 45
-675 111 -885 51 -165 147 -313 255 -393 l55 -41 -43 -25 c-143 -84 -312 -140
-471 -156 -204 -21 -347 22 -471 139 -111 105 -193 259 -250 471 -20 75 -56
246 -56 266 0 2 -202 4 -449 4 l-449 0 -21 -78 c-60 -225 -75 -384 -47 -521 9
-46 16 -84 14 -86 -2 -1 -45 -26 -96 -54 l-92 -52 61 -74 c149 -180 368 -376
569 -508 136 -89 384 -212 536 -266 145 -52 349 -102 509 -127 169 -26 541
-26 710 0 522 80 995 303 1368 644 86 79 247 249 247 261 0 3 -80 21 -178 40
l-177 34 -40 -20 c-212 -108 -515 -103 -682 11 -138 93 -215 337 -200 630 13
243 105 857 251 1665 l24 134 -114 229 c-63 126 -114 232 -114 237 0 11 194
120 311 176 110 51 271 106 374 126 39 8 126 14 195 14 110 0 131 -3 178 -24
126 -57 195 -221 178 -425 -8 -99 -68 -457 -151 -906 -106 -569 -165 -948
-181 -1142 l-7 -88 259 0 c233 1 271 3 378 25 65 13 122 27 126 32 26 29 109
351 137 533 25 164 24 539 -1 705 -71 465 -260 899 -543 1250 -232 288 -518
517 -854 684 -246 123 -506 205 -779 246 -124 19 -478 28 -600 15z"/>
<path d="M1293 2953 c-220 -445 -333 -681 -333 -698 0 -3 153 -5 340 -5 l340
0 0 128 c0 202 31 906 45 1035 l6 47 -74 0 -73 0 -251 -507z"/>
</g>
</svg>
